<svg width="113" height="112" viewBox="0 0 113 112" fill="none" xmlns="http://www.w3.org/2000/svg">
<path d="M36.996 52.9465L0 54.6474L39.5796 59.1533C39.8419 59.1832 39.9665 59.0017 39.9665 59.0017C39.9665 59.0017 41.3843 56.9456 41.834 56.3483C42.3813 55.6213 42.6877 56.3483 42.6877 56.3483L48.9486 109.076C48.9486 109.076 50.087 111.911 52.9328 111.911C55.7787 111.911 56.3478 108.509 56.3478 108.509L62.0395 39.3393L66.0237 69.9556C66.0237 69.9556 66.5929 71.6565 69.4387 71.6565C71.7154 71.6565 72.2846 69.9556 72.2846 69.9556L77.4071 59.7502C77.7533 59.0724 78.5713 59.25 78.5454 59.1831C78.5196 59.1162 112.696 59.1831 112.696 59.1831V51.8125H74.5613C72.6622 51.5112 71.2215 59.8028 70.5771 54.6474C68.132 34.0558 65.4545 4.18734 64.3162 1.91939C63.1779 -0.348571 59.1937 -0.915375 57.4862 1.91939C55.7787 4.75415 51.7945 72.7904 51.7945 72.7904L47.2411 40.4732C47.2411 40.4732 46.5867 38.7724 44.3953 38.7724C42.2038 38.7724 41.5494 40.4732 41.5494 40.4732L36.996 52.9465Z" fill="url(#paint0_radial_35_3)"/>
<defs>
<radialGradient id="paint0_radial_35_3" cx="0" cy="0" r="1" gradientUnits="userSpaceOnUse" gradientTransform="translate(56.3478 55.9556) rotate(90) scale(55.9556 56.3478)">
<stop stop-color="#CCB2FF"/>
<stop offset="1" stop-color="#6419FF"/>
</radialGradient>
</defs>
</svg>
