<svg width="40" height="40" viewBox="0 0 40 40" fill="none" xmlns="http://www.w3.org/2000/svg">
<path d="M15.0044 7.08289V10.5569L19.517 18.3742L15.0044 20.98V24.4541L18.0128 26.1117L22.5255 23.5858L27.0381 31.4022L30.0465 33.1397V29.6656L25.5339 21.8483L30.0465 19.2425V15.7685L27.0416 14.0017L22.5255 16.6368L18.0838 8.85761L15.0044 7.08289Z" fill="#A18AFF"/>
<path d="M28.5428 20.1175L25.5342 21.8545L30.0473 29.6714L33.0559 27.9343L28.5428 20.1175Z" fill="#7B6AFF"/>
<path d="M30.0464 15.7685L33.0548 14.0319L30.0464 12.2944L27.0415 14.0018L30.0464 15.7685Z" fill="#B4BAFF"/>
<path d="M15.0363 7.06518L17.9844 5.3623L20.9902 7.06518L18.0838 8.85765L15.0044 7.08292" fill="#B4BAFF"/>
<path d="M30.0464 33.1398L33.0548 31.4023V27.9282L30.0464 29.6657V33.1398Z" fill="#6A3FFF"/>
<path d="M30.0464 19.2425L33.0548 17.5059V14.0319L30.0464 15.7684V19.2425Z" fill="#6A3FFF"/>
<path d="M20.9904 7.06519L25.5022 14.9002L22.5257 16.6368L18.084 8.85765L20.9904 7.06519Z" fill="#7B6AFF"/>
<path d="M6.01221 8.86646V12.3405L10.5248 20.1578L6.01221 22.7636V26.2376L9.02063 27.8953L13.5333 25.3693L18.0459 33.1858L21.0543 34.9232V31.4492L16.5417 23.6319L21.0543 21.0261V17.552L18.0486 15.7853L13.5333 18.4203L9.0907 10.6412L6.01221 8.86646Z" fill="#1F77FF"/>
<path d="M19.5487 21.9015L16.54 23.6385L21.0531 31.4554L24.0617 29.7184L19.5487 21.9015Z" fill="#008AE9"/>
<path d="M21.0541 17.5521L24.0625 15.8155L21.0541 14.078L18.0483 15.7853L21.0541 17.5521Z" fill="#1FA6FF"/>
<path d="M6.04325 8.84876L8.99225 7.14587L11.9971 8.84876L9.0907 10.6412L6.01221 8.86649" fill="#1FA6FF"/>
<path d="M21.0542 34.9233L24.0626 33.1859V29.7118L21.0542 31.4493V34.9233Z" fill="#0066BF"/>
<path d="M21.0542 21.0262L24.0626 19.2896V15.8156L21.0542 17.5521V21.0262Z" fill="#0066BF"/>
<path d="M11.9973 8.84875L16.5099 16.6838L13.5334 18.4204L9.09082 10.6412L11.9973 8.84875Z" fill="#008AE9"/>
</svg>
