<svg width="408" height="130" viewBox="0 0 408 130" fill="none" xmlns="http://www.w3.org/2000/svg">
<path d="M180.489 81.118V48H186.995V77.8711C186.995 77.8711 186.995 80.4686 189.598 80.4686H209.115C211.197 80.4686 211.717 78.7369 211.717 77.8711V48H218.223V81.7673C218.223 84.3648 216.272 85.6636 214.32 85.6636H185.694C180.489 85.6636 180.489 81.118 180.489 81.118Z" fill="#6419FF"/>
<path d="M245.548 85.6636V48H252.054V80.4686H279.378V85.6636H245.548Z" fill="#6419FF"/>
<path d="M335.329 48V53.195C327.305 52.9785 310.658 53.195 308.004 53.195C305.4 53.195 305.401 54.4456 305.402 55.7196L305.402 62.2862C305.402 63.5849 307.353 63.5849 308.004 63.5849H330.124C337.28 63.5849 337.931 63.5849 337.931 71.3774V79.1698C337.931 84.3648 335.329 85.6636 332.726 85.6636H300.197V80.4686H328.823C330.905 80.4686 331.425 78.7369 331.425 77.8711V72.0268C331.425 69.9488 330.124 70.0786 328.823 70.0786H305.402C300.848 70.0786 298.896 68.1305 298.896 63.5849V54.4937C298.896 49.8182 300.848 48 304.101 48H335.329Z" fill="#6419FF"/>
<path d="M361.352 85.6636V48H396.484V53.195H367.858V63.5849H393.881V70.0786H367.858V80.4686H397.785V85.6636H361.352Z" fill="#6419FF"/>
<path fill-rule="evenodd" clip-rule="evenodd" d="M121.937 85.6636V48H155.117C159.02 48 160.972 50.3377 160.972 54.4937V63.5849C160.972 66.1824 158.914 70.0786 153.165 70.0786H128.443V85.6636H121.937ZM128.443 53.195V63.5849H151.864C153.165 63.5849 154.466 62.5459 154.466 60.9874V55.7925C154.466 54.9266 153.946 53.195 151.864 53.195H128.443Z" fill="#6419FF"/>
<path d="M180.489 81.118V48H186.995V77.8711C186.995 77.8711 186.995 80.4686 189.598 80.4686H209.115C211.197 80.4686 211.717 78.7369 211.717 77.8711V48H218.223V81.7673C218.223 84.3648 216.272 85.6636 214.32 85.6636H185.694C180.489 85.6636 180.489 81.118 180.489 81.118Z" stroke="#6419FF" stroke-width="1.0459"/>
<path d="M245.548 85.6636V48H252.054V80.4686H279.378V85.6636H245.548Z" stroke="#6419FF" stroke-width="1.0459"/>
<path d="M335.329 48V53.195C327.305 52.9785 310.658 53.195 308.004 53.195C305.4 53.195 305.401 54.4456 305.402 55.7196L305.402 62.2862C305.402 63.5849 307.353 63.5849 308.004 63.5849H330.124C337.28 63.5849 337.931 63.5849 337.931 71.3774V79.1698C337.931 84.3648 335.329 85.6636 332.726 85.6636H300.197V80.4686H328.823C330.905 80.4686 331.425 78.7369 331.425 77.8711V72.0268C331.425 69.9488 330.124 70.0786 328.823 70.0786H305.402C300.848 70.0786 298.896 68.1305 298.896 63.5849V54.4937C298.896 49.8182 300.848 48 304.101 48H335.329Z" stroke="#6419FF" stroke-width="1.0459"/>
<path d="M361.352 85.6636V48H396.484V53.195H367.858V63.5849H393.881V70.0786H367.858V80.4686H397.785V85.6636H361.352Z" stroke="#6419FF" stroke-width="1.0459"/>
<path fill-rule="evenodd" clip-rule="evenodd" d="M121.937 85.6636V48H155.117C159.02 48 160.972 50.3377 160.972 54.4937V63.5849C160.972 66.1824 158.914 70.0786 153.165 70.0786H128.443V85.6636H121.937ZM128.443 53.195V63.5849H151.864C153.165 63.5849 154.466 62.5459 154.466 60.9874V55.7925C154.466 54.9266 153.946 53.195 151.864 53.195H128.443Z" stroke="#6419FF" stroke-width="1.0459"/>
<path d="M46.4129 63.9465L9.41684 65.6474L48.9964 70.1533C49.2587 70.1832 49.3834 70.0017 49.3834 70.0017C49.3834 70.0017 50.8011 67.9456 51.2508 67.3483C51.7982 66.6213 52.1046 67.3483 52.1046 67.3483L58.3655 120.076C58.3655 120.076 59.5038 122.911 62.3496 122.911C65.1955 122.911 65.7647 119.509 65.7647 119.509L71.4564 50.3393L75.4405 80.9556C75.4405 80.9556 76.0097 82.6565 78.8556 82.6565C81.1322 82.6565 81.7014 80.9556 81.7014 80.9556L86.824 70.7502C87.1701 70.0724 87.9882 70.25 87.9623 70.1831C87.9364 70.1162 122.112 70.1831 122.112 70.1831V62.8125H83.9781C82.079 62.5112 80.6383 70.8028 79.9939 65.6474C77.5489 45.0558 74.8714 15.1873 73.733 12.9194C72.5947 10.6514 68.6105 10.0846 66.903 12.9194C65.1955 15.7541 61.2113 83.7904 61.2113 83.7904L56.6579 51.4732C56.6579 51.4732 56.0035 49.7724 53.8121 49.7724C51.6207 49.7724 50.9662 51.4732 50.9662 51.4732L46.4129 63.9465Z" fill="url(#paint0_radial_35_3)"/>
<defs>
<radialGradient id="paint0_radial_35_3" cx="0" cy="0" r="1" gradientUnits="userSpaceOnUse" gradientTransform="translate(65.7647 66.9556) rotate(90) scale(55.9556 56.3478)">
<stop stop-color="#CCB2FF"/>
<stop offset="1" stop-color="#6419FF"/>
</radialGradient>
</defs>
</svg>
