<svg width="142" height="44" viewBox="0 0 142 44" fill="none" xmlns="http://www.w3.org/2000/svg">
<path d="M17.481 7.52856V11.2854L22.361 19.7391L17.481 22.557V26.3139L20.7343 28.1065L25.6143 25.3749L30.4943 33.8276L33.7476 35.7065V31.9497L28.8676 23.496L33.7476 20.6781V16.9212L30.4981 15.0107L25.6143 17.8602L20.811 9.44776L17.481 7.52856Z" fill="#A18AFF"/>
<path d="M32.1212 21.6242L28.8677 23.5027L33.7482 31.9559L37.0017 30.0775L32.1212 21.6242Z" fill="#7B6AFF"/>
<path d="M33.748 16.9214L37.0014 15.0435L33.748 13.1646L30.4985 15.0109L33.748 16.9214Z" fill="#B4BAFF"/>
<path d="M17.5155 7.50947L20.7036 5.66797L23.9541 7.50947L20.811 9.44786L17.481 7.52866" fill="#B4BAFF"/>
<path d="M33.7476 35.7066L37.0009 33.8277V30.0708L33.7476 31.9497V35.7066Z" fill="#6A3FFF"/>
<path d="M33.7476 20.6783L37.0009 18.8003V15.0435L33.7476 16.9214V20.6783Z" fill="#6A3FFF"/>
<path d="M23.9541 7.50952L28.8331 15.9824L25.6143 17.8603L20.811 9.4479L23.9541 7.50952Z" fill="#7B6AFF"/>
<path d="M7.75635 9.45728V13.2142L12.6364 21.6678L7.75635 24.4857V28.2426L11.0097 30.0352L15.8897 27.3036L20.7697 35.7563L24.023 37.6353V33.8784L19.143 25.4247L24.023 22.6068V18.8499L20.7726 16.9394L15.8897 19.7889L11.0854 11.3765L7.75635 9.45728Z" fill="#1F77FF"/>
<path d="M22.3952 23.5534L19.1416 25.4319L24.0221 33.8851L27.2756 32.0067L22.3952 23.5534Z" fill="#008AE9"/>
<path d="M24.0229 18.8501L27.2763 16.9722L24.0229 15.0933L20.7725 16.9396L24.0229 18.8501Z" fill="#1FA6FF"/>
<path d="M7.78991 9.43819L10.979 7.59668L14.2285 9.43819L11.0854 11.3766L7.75635 9.45737" fill="#1FA6FF"/>
<path d="M24.0229 37.6353L27.2763 35.7564V31.9995L24.0229 33.8784V37.6353Z" fill="#0066BF"/>
<path d="M24.0229 22.6067L27.2763 20.7288V16.9719L24.0229 18.8499V22.6067Z" fill="#0066BF"/>
<path d="M14.2285 9.43799L19.1085 17.9108L15.8897 19.7888L11.0854 11.3764L14.2285 9.43799Z" fill="#008AE9"/>
<path d="M60.1005 21.2101C60.9453 22.2125 61.3678 23.3365 61.3678 24.5823C61.3391 26.0143 60.8451 27.2171 59.8857 28.1908C58.9406 29.1502 57.7879 29.6299 56.4276 29.6299H50.7786C49.7763 29.6299 49.1892 29.3578 49.0173 28.8137C48.9314 28.5703 48.8885 28.198 48.8885 27.6968V15.7759C48.8885 15.4323 48.8956 15.1817 48.9099 15.0242C48.9386 14.8667 49.0102 14.6805 49.1247 14.4657C49.3252 14.0791 49.8837 13.8858 50.8001 13.8858H56.2128C57.5302 13.8858 58.6328 14.344 59.5206 15.2604C60.4513 16.1912 60.9167 17.3081 60.9167 18.6112C60.9167 19.5562 60.6446 20.4226 60.1005 21.2101ZM57.566 24.3675C57.566 24.0239 57.523 23.7518 57.4371 23.5513C57.3655 23.3509 57.2366 23.2077 57.0505 23.1218C56.7641 23.0072 56.3631 22.9499 55.8477 22.9499C55.3322 22.9499 54.9455 22.8497 54.6878 22.6492C54.43 22.4487 54.3012 22.0406 54.3012 21.4249C54.3012 20.7949 54.43 20.3796 54.6878 20.1791C54.9599 19.9787 55.4038 19.8784 56.0195 19.8784C56.5923 19.8784 56.9359 19.7281 57.0505 19.4274C57.0934 19.2699 57.1149 19.0121 57.1149 18.6541C57.1149 18.2961 56.9932 18.0456 56.7498 17.9024C56.5207 17.7592 56.1698 17.6876 55.6973 17.6876H52.6902V25.8281H56.2128C57.1149 25.8281 57.566 25.3412 57.566 24.3675ZM70.1631 13.714C72.2823 13.714 74.1224 14.48 75.6832 16.0122C77.244 17.5444 78.0244 19.4488 78.0244 21.7256C78.0244 23.9881 77.2798 25.9212 75.7906 27.5249C74.3013 29.1144 72.4685 29.9091 70.2919 29.9091C68.1154 29.9091 66.261 29.1216 64.7289 27.5464C63.211 25.9713 62.4521 24.0955 62.4521 21.9189C62.4521 20.7304 62.6669 19.6207 63.0965 18.5897C63.5261 17.5444 64.0988 16.6709 64.8148 15.9692C65.5308 15.2676 66.3541 14.7163 67.2849 14.3154C68.2156 13.9144 69.175 13.714 70.1631 13.714ZM66.2539 21.8115C66.2539 23.086 66.662 24.1241 67.4782 24.926C68.3087 25.7136 69.2323 26.1073 70.249 26.1073C71.2657 26.1073 72.1821 25.7207 72.9983 24.9475C73.8145 24.1742 74.2226 23.1361 74.2226 21.833C74.2226 20.53 73.8073 19.4846 72.9768 18.6971C72.1606 17.9095 71.2442 17.5157 70.2275 17.5157C69.2108 17.5157 68.2944 17.9167 67.4782 18.7186C66.662 19.5061 66.2539 20.5371 66.2539 21.8115ZM88.2559 21.6827L92.5732 26.4295C93.0601 26.9737 93.3035 27.4319 93.3035 27.8042C93.3035 28.1765 93.0243 28.6132 92.4658 29.1144C91.9217 29.6156 91.4563 29.8662 91.0697 29.8662C90.6974 29.8662 90.2606 29.5798 89.7595 29.007L85.6784 24.3246L81.5974 29.007C81.0819 29.5798 80.638 29.8662 80.2657 29.8662C79.9078 29.8662 79.4424 29.6156 78.8696 29.1144C78.3112 28.5989 78.0319 28.1622 78.0319 27.8042C78.0319 27.4462 78.2825 26.988 78.7837 26.4295L83.101 21.6827L78.7837 16.9358C78.2825 16.406 78.0319 15.9549 78.0319 15.5826C78.0319 15.2103 78.3112 14.7736 78.8696 14.2724C79.4281 13.7569 79.8934 13.4992 80.2657 13.4992C80.6524 13.4992 81.0963 13.7856 81.5974 14.3583L85.6784 19.0407L89.7595 14.3583C90.275 13.7856 90.7117 13.4992 91.0697 13.4992C91.442 13.4992 91.9074 13.7498 92.4658 14.2509C93.0243 14.7521 93.3035 15.196 93.3035 15.5826C93.3035 15.9692 93.0601 16.4203 92.5732 16.9358L88.2559 21.6827ZM104.176 21.6827L108.494 26.4295C108.981 26.9737 109.224 27.4319 109.224 27.8042C109.224 28.1765 108.945 28.6132 108.386 29.1144C107.842 29.6156 107.377 29.8662 106.99 29.8662C106.618 29.8662 106.181 29.5798 105.68 29.007L101.599 24.3246L97.5179 29.007C97.0024 29.5798 96.5585 29.8662 96.1862 29.8662C95.8282 29.8662 95.3628 29.6156 94.7901 29.1144C94.2316 28.5989 93.9524 28.1622 93.9524 27.8042C93.9524 27.4462 94.203 26.988 94.7042 26.4295L99.0214 21.6827L94.7042 16.9358C94.203 16.406 93.9524 15.9549 93.9524 15.5826C93.9524 15.2103 94.2316 14.7736 94.7901 14.2724C95.3485 13.7569 95.8139 13.4992 96.1862 13.4992C96.5728 13.4992 97.0167 13.7856 97.5179 14.3583L101.599 19.0407L105.68 14.3583C106.195 13.7856 106.632 13.4992 106.99 13.4992C107.362 13.4992 107.828 13.7498 108.386 14.2509C108.945 14.7521 109.224 15.196 109.224 15.5826C109.224 15.9692 108.981 16.4203 108.494 16.9358L104.176 21.6827ZM110.41 15.7974C110.41 15.4681 110.417 15.2246 110.431 15.0671C110.46 14.8953 110.532 14.702 110.646 14.4872C110.847 14.1006 111.405 13.9073 112.321 13.9073C113.324 13.9073 113.918 14.1722 114.104 14.702C114.176 14.9454 114.212 15.3177 114.212 15.8189V27.7612C114.212 28.1049 114.197 28.3555 114.169 28.513C114.154 28.6705 114.09 28.8566 113.975 29.0714C113.775 29.4581 113.216 29.6514 112.3 29.6514C111.298 29.6514 110.711 29.3793 110.539 28.8352C110.453 28.6061 110.41 28.2409 110.41 27.7397V15.7974ZM116.957 13.8858H128.9C129.358 13.8858 129.694 13.9431 129.909 14.0576C130.124 14.1579 130.267 14.3225 130.339 14.5516C130.41 14.7807 130.446 15.0815 130.446 15.4538C130.446 15.8261 130.41 16.1268 130.339 16.3559C130.267 16.5707 130.145 16.721 129.974 16.8069C129.716 16.9358 129.351 17.0002 128.878 17.0002H124.776V27.8042C124.776 28.1335 124.761 28.3769 124.733 28.5345C124.718 28.692 124.654 28.8781 124.539 29.0929C124.439 29.2934 124.253 29.4366 123.981 29.5225C123.709 29.6084 123.351 29.6514 122.907 29.6514C122.463 29.6514 122.105 29.6084 121.833 29.5225C121.575 29.4366 121.389 29.2934 121.275 29.0929C121.174 28.8781 121.11 28.692 121.081 28.5345C121.067 28.3626 121.06 28.112 121.06 27.7827V17.0002H116.936C116.478 17.0002 116.141 16.9501 115.926 16.8499C115.712 16.7353 115.568 16.5635 115.497 16.3344C115.425 16.1053 115.389 15.8046 115.389 15.4323C115.389 15.06 115.425 14.7664 115.497 14.5516C115.568 14.3225 115.69 14.165 115.862 14.0791C116.12 13.9502 116.485 13.8858 116.957 13.8858Z" fill="black"/>
</svg>
